<svg width="512" height="512" viewBox="0 0 512 512" fill="none" xmlns="http://www.w3.org/2000/svg">
<rect width="512" height="512" rx="50" fill="#121212"/>
<path d="M103.876 89.0017C103.864 89.0017 103.851 89.0017 103.839 89.0017C99.7039 89.0017 95.8149 90.6135 92.8783 93.5428C89.9093 96.5044 88.2739 100.448 88.2739 104.646V339.229C88.2739 347.832 95.2997 354.847 103.937 354.869C140.351 354.956 201.359 362.546 243.447 406.589V161.091C243.447 158.175 242.702 155.435 241.296 153.169C206.753 97.5392 140.372 89.0871 103.876 89.0017Z" fill="white"/>
<path d="M422.907 339.229V104.644C422.907 100.446 421.271 96.5027 418.302 93.5411C415.366 90.6118 411.474 89 407.343 89C407.33 89 407.317 89 407.305 89C370.81 89.0868 304.429 97.539 269.885 153.168C268.479 155.435 267.736 158.175 267.736 161.091V406.587C309.823 362.544 370.831 354.954 407.245 354.868C415.881 354.845 422.907 347.83 422.907 339.229Z" fill="white"/>
<path d="M458.538 143.1H447.195V339.229C447.195 361.193 429.3 379.102 407.302 379.157C376.416 379.231 325.488 385.27 289.42 419.407C351.8 404.134 417.559 414.062 455.036 422.603C459.715 423.668 464.551 422.567 468.3 419.579C472.036 416.598 474.179 412.143 474.179 407.36V158.741C474.181 150.117 467.162 143.1 458.538 143.1Z" fill="white"/>
<path d="M63.9845 339.229V143.1H52.6413C44.0184 143.1 37 150.117 37 158.741V407.356C37 412.14 39.1432 416.594 42.8791 419.575C46.6253 422.561 51.4564 423.667 56.1432 422.598C93.62 414.056 159.381 404.129 221.758 419.403C185.691 385.267 134.764 379.229 103.877 379.155C81.8809 379.102 63.9845 361.193 63.9845 339.229Z" fill="white"/>
<mask id="mask0_22_5074" style="mask-type:alpha" maskUnits="userSpaceOnUse" x="347" y="289" width="63" height="35">
<path d="M409.29 323.55H367.87L347.948 289.451H385.871L409.29 323.55Z" fill="white"/>
</mask>
<g mask="url(#mask0_22_5074)">
<path d="M409.29 323.55H367.87L347.948 289.451H385.871L409.29 323.55Z" fill="#881337"/>
</g>
<mask id="mask1_22_5074" style="mask-type:alpha" maskUnits="userSpaceOnUse" x="303" y="278" width="37" height="46">
<path d="M319.744 323.177H303.178V278.527V300.768L339.704 278.369V303.216C339.704 314.233 330.765 323.177 319.744 323.177Z" fill="white"/>
</mask>
<g mask="url(#mask1_22_5074)">
<path d="M319.744 323.177H303.178V278.527V300.768L339.704 278.369V303.216C339.704 314.233 330.765 323.177 319.744 323.177Z" fill="#881337"/>
</g>
<mask id="mask2_22_5074" style="mask-type:alpha" maskUnits="userSpaceOnUse" x="280" y="188" width="122" height="91">
<path d="M303.178 278.527H280.979L287.372 260.302C289.763 253.516 296.051 248.891 303.178 248.599V188.006H349.963C359.218 188.006 367.213 189.111 373.974 191.294C379.681 193.134 384.517 195.764 388.438 199.183C396.985 206.655 401.272 217.25 401.272 231.007C401.272 236.186 400.744 240.975 399.694 245.34C397.693 253.703 393.777 260.593 387.91 266.008C386.571 267.247 385.151 268.402 383.626 269.427C375.605 275.032 365.111 278.003 352.222 278.319H352.015L340.493 278.369H339.704L303.178 278.519V278.527ZM339.704 225.014L303.178 248.591L339.704 248.567V248.575H347.228C351.305 248.575 355.378 247.313 358.51 244.709C358.797 244.499 359.063 244.262 359.323 244.025L359.428 243.946C362.666 240.869 364.296 236.609 364.296 231.189C364.296 222.063 359.247 217.516 349.119 217.516H339.704V225.014Z" fill="white"/>
</mask>
<g mask="url(#mask2_22_5074)">
<path d="M303.178 278.527H280.979L287.372 260.302C289.763 253.516 296.051 248.891 303.178 248.599V188.006H349.963C359.218 188.006 367.213 189.111 373.974 191.294C379.681 193.134 384.517 195.764 388.438 199.183C396.985 206.655 401.272 217.25 401.272 231.007C401.272 236.186 400.744 240.975 399.694 245.34C397.693 253.703 393.777 260.593 387.91 266.008C386.571 267.247 385.151 268.402 383.626 269.427C375.605 275.032 365.111 278.003 352.222 278.319H352.015L340.493 278.369H339.704L303.178 278.519V278.527ZM339.704 225.014L303.178 248.591L339.704 248.567V248.575H347.228C351.305 248.575 355.378 247.313 358.51 244.709C358.797 244.499 359.063 244.262 359.323 244.025L359.428 243.946C362.666 240.869 364.296 236.609 364.296 231.189C364.296 222.063 359.247 217.516 349.119 217.516H339.704V225.014Z" fill="#881337"/>
</g>
<mask id="mask3_22_5074" style="mask-type:alpha" maskUnits="userSpaceOnUse" x="303" y="225" width="37" height="24">
<path d="M303.178 248.59L339.704 225.013V248.567L303.178 248.59Z" fill="white"/>
</mask>
<g mask="url(#mask3_22_5074)">
<path d="M303.178 248.59L339.704 225.013V248.567L303.178 248.59Z" fill="#881337"/>
</g>
<mask id="mask4_22_5074" style="mask-type:alpha" maskUnits="userSpaceOnUse" x="303" y="278" width="37" height="23">
<path d="M303.178 300.767V278.526H303.967L339.704 278.369L303.178 300.767Z" fill="white"/>
</mask>
<g mask="url(#mask4_22_5074)">
<path d="M303.178 300.767V278.526H303.967L339.704 278.369L303.178 300.767Z" fill="#881337"/>
</g>
<mask id="mask5_22_5074" style="mask-type:alpha" maskUnits="userSpaceOnUse" x="122" y="188" width="103" height="52">
<path d="M224.083 221.612C224.083 228.626 222.429 234.688 219.068 239.785H186.69V230.464C186.772 229.387 186.795 228.229 186.69 226.969C186.139 219.409 180.969 215.602 169.518 215.602H159.281V237.159H122.807V188.006H169.888C188.242 188.006 201.841 190.737 210.744 196.169C219.645 201.633 224.083 210.114 224.083 221.612Z" fill="white"/>
</mask>
<g mask="url(#mask5_22_5074)">
<path d="M224.083 221.612C224.083 228.626 222.429 234.688 219.068 239.785H186.69V230.464C186.772 229.387 186.795 228.229 186.69 226.969C186.139 219.409 180.969 215.602 169.518 215.602H159.281V237.159H122.807V188.006H169.888C188.242 188.006 201.841 190.737 210.744 196.169C219.645 201.633 224.083 210.114 224.083 221.612Z" fill="#881337"/>
</g>
<mask id="mask6_22_5074" style="mask-type:alpha" maskUnits="userSpaceOnUse" x="100" y="251" width="127" height="72">
<path d="M175.35 322.964H122.808V281.428H100.647L107.03 263.23C109.498 256.222 116.138 251.519 123.569 251.519H196.829C198.929 251.519 200.975 251.732 202.944 252.152V252.257C206.544 253.202 209.718 254.436 212.504 255.956L212.609 256.012C218.281 259.53 222.637 264.86 224.976 271.159C225.105 271.582 225.262 272.028 225.396 272.448L225.42 272.527C226.158 275.232 226.604 278.199 226.709 281.428C226.761 282.085 226.762 282.765 226.762 283.45C226.762 295.712 222.167 305.346 212.948 312.385C203.758 319.448 191.21 322.964 175.35 322.964ZM122.808 281.428V305.283L159.281 281.428V294.819H172.121C183.07 294.819 188.765 290.356 189.135 281.428H159.281H122.808Z" fill="white"/>
</mask>
<g mask="url(#mask6_22_5074)">
<path d="M175.35 322.964H122.808V281.428H100.647L107.03 263.23C109.498 256.222 116.138 251.519 123.569 251.519H196.829C198.929 251.519 200.975 251.732 202.944 252.152V252.257C206.544 253.202 209.718 254.436 212.504 255.956L212.609 256.012C218.281 259.53 222.637 264.86 224.976 271.159C225.105 271.582 225.262 272.028 225.396 272.448L225.42 272.527C226.158 275.232 226.604 278.199 226.709 281.428C226.761 282.085 226.762 282.765 226.762 283.45C226.762 295.712 222.167 305.346 212.948 312.385C203.758 319.448 191.21 322.964 175.35 322.964ZM122.808 281.428V305.283L159.281 281.428V294.819H172.121C183.07 294.819 188.765 290.356 189.135 281.428H159.281H122.808Z" fill="#881337"/>
</g>
<mask id="mask7_22_5074" style="mask-type:alpha" maskUnits="userSpaceOnUse" x="122" y="281" width="38" height="25">
<path d="M122.807 305.283V281.428H159.281L122.807 305.283Z" fill="white"/>
</mask>
<g mask="url(#mask7_22_5074)">
<path d="M122.807 305.283V281.428H159.281L122.807 305.283Z" fill="#881337"/>
</g>
</svg>
