<svg width="24" height="24" viewBox="0 0 24 24" fill="none" xmlns="http://www.w3.org/2000/svg">
<path d="M20.4844 3.51476C18.2174 1.24822 15.2032 0 11.9972 0C8.79108 0 5.77691 1.24822 3.5099 3.51476C-1.16997 8.1936 -1.16997 15.8065 3.5099 20.4853C5.77691 22.7518 8.79108 24 11.9972 24C15.2033 24 18.2174 22.7518 20.4844 20.4852C22.7515 18.2188 24 15.2053 24 12C24 8.79469 22.7515 5.78124 20.4844 3.51476ZM18.9413 18.9425C17.0864 20.7969 14.6203 21.8182 11.9972 21.8182C9.37406 21.8182 6.90795 20.7969 5.05303 18.9425C1.22405 15.1144 1.22405 8.88567 5.05303 5.05753C6.90787 3.20305 9.37399 2.18182 11.9972 2.18182C14.6203 2.18182 17.0864 3.20305 18.9413 5.05745C20.7961 6.91193 21.8177 9.37745 21.8177 12C21.8177 14.6225 20.7961 17.0881 18.9413 18.9425Z" fill="black"/>
<path d="M18.5442 10.9091H5.45024C4.84762 10.9091 4.35907 11.3975 4.35907 12C4.35907 12.6024 4.84762 13.0909 5.45024 13.0909H18.5442C19.1468 13.0909 19.6353 12.6024 19.6353 12C19.6353 11.3975 19.1468 10.9091 18.5442 10.9091Z" fill="black"/>
</svg>
