<svg width="24" height="24" viewBox="0 0 24 24" fill="none" xmlns="http://www.w3.org/2000/svg">
<path d="M11.1576 8.52739V11.1576H8.52736C8.06205 11.1576 7.68491 11.5347 7.68491 12C7.68491 12.4653 8.06205 12.8425 8.52736 12.8425H11.1576V15.4727C11.1576 15.938 11.5347 16.3151 12 16.3151C12.4653 16.3151 12.8376 15.938 12.8376 15.4727V12.8425H15.4678C15.9331 12.8425 16.3102 12.4653 16.3102 12C16.3102 11.5347 15.9331 11.1576 15.4678 11.1576H12.8376V8.52739C12.8376 8.06208 12.4604 7.68494 12 7.68494C11.5396 7.68494 11.1576 8.06208 11.1576 8.52739Z" fill="black"/>
<path d="M3.51184 3.51184C1.24898 5.77959 0 8.79184 0 12C0 15.2082 1.24898 18.2204 3.51673 20.4882C5.77959 22.751 8.79673 24 12 24C15.2033 24 18.2204 22.751 20.4882 20.4833C22.751 18.2204 24 15.2033 24 12C24 8.79673 22.751 5.77959 20.4833 3.51184C18.2204 1.24898 15.2082 0 12 0C8.79673 0 5.77959 1.24898 3.51184 3.51184ZM22.32 12C22.32 14.7576 21.2473 17.3486 19.298 19.298C17.3486 21.2473 14.7576 22.32 12 22.32C9.24245 22.32 6.65143 21.2473 4.70204 19.298C2.75265 17.3486 1.68 14.7576 1.68 12C1.68 9.24245 2.75265 6.65143 4.70204 4.70204C6.65143 2.75265 9.24245 1.68 12 1.68C14.7576 1.68 17.3486 2.75265 19.298 4.70204C21.2473 6.65143 22.32 9.24245 22.32 12Z" fill="black"/>
</svg>
