<svg width="322" height="483" viewBox="0 0 322 483" fill="none" xmlns="http://www.w3.org/2000/svg">
<g filter="url(#filter0_d_10_3)">
<rect x="4" width="314" height="475" rx="20" fill="#707071"/>
</g>
<path d="M73.6339 62.0009C73.6271 62.0009 73.6195 62.0009 73.6126 62.0009C71.224 62.0009 68.9773 62.932 67.2808 64.6242C65.5656 66.3352 64.6208 68.6133 64.6208 71.0386V206.558C64.6208 211.527 68.6797 215.58 73.6696 215.593C94.706 215.643 129.95 220.027 154.264 245.471V103.647C154.264 101.962 153.834 100.38 153.022 99.0701C133.066 66.933 94.7179 62.0502 73.6339 62.0009Z" fill="#C0C0C1"/>
<path d="M257.938 206.558V71.0377C257.938 68.6125 256.994 66.3343 255.279 64.6234C253.582 62.9312 251.334 62 248.948 62C248.94 62 248.932 62 248.925 62C227.842 62.0502 189.494 66.933 169.538 99.0701C168.725 100.38 168.296 101.962 168.296 103.647V245.47C192.61 220.027 227.854 215.642 248.891 215.592C253.88 215.579 257.938 211.526 257.938 206.558Z" fill="#C0C0C1"/>
<path d="M278.522 93.2536H271.969V206.558C271.969 219.246 261.632 229.592 248.924 229.624C231.08 229.666 201.659 233.155 180.823 252.876C216.86 244.053 254.849 249.789 276.499 254.722C279.203 255.338 281.996 254.702 284.162 252.976C286.32 251.254 287.558 248.68 287.558 245.917V102.29C287.559 97.3073 283.505 93.2536 278.522 93.2536Z" fill="#C0C0C1"/>
<path d="M50.589 206.558V93.2536H44.036C39.0546 93.2536 35 97.3073 35 102.29V245.914C35 248.678 36.2381 251.251 38.3964 252.973C40.5606 254.699 43.3515 255.337 46.059 254.72C67.7094 249.785 105.7 244.05 141.735 252.874C120.899 233.154 91.4781 229.665 73.6348 229.623C60.9277 229.592 50.589 219.246 50.589 206.558Z" fill="#C0C0C1"/>
<path d="M49.1286 329.72C49.1286 327.64 49.4966 325.608 50.2326 323.624C51.0006 321.608 52.1046 319.784 53.5446 318.152C54.9846 316.488 56.7446 315.176 58.8246 314.216C60.9046 313.224 63.2726 312.728 65.9286 312.728C69.0646 312.728 71.7686 313.416 74.0406 314.792C76.3446 316.168 78.0566 317.96 79.1766 320.168L74.0886 323.672C73.5126 322.392 72.7606 321.384 71.8326 320.648C70.9046 319.88 69.9126 319.352 68.8566 319.064C67.8006 318.744 66.7606 318.584 65.7366 318.584C64.0726 318.584 62.6166 318.92 61.3686 319.592C60.1526 320.264 59.1286 321.144 58.2966 322.232C57.4646 323.32 56.8406 324.536 56.4246 325.88C56.0406 327.224 55.8486 328.568 55.8486 329.912C55.8486 331.416 56.0886 332.872 56.5686 334.28C57.0486 335.656 57.7206 336.888 58.5846 337.976C59.4806 339.032 60.5366 339.88 61.7526 340.52C63.0006 341.128 64.3606 341.432 65.8326 341.432C66.8886 341.432 67.9606 341.256 69.0486 340.904C70.1366 340.552 71.1446 339.992 72.0726 339.224C73.0006 338.456 73.7206 337.464 74.2326 336.248L79.6566 339.368C78.9846 341.064 77.8806 342.504 76.3446 343.688C74.8406 344.872 73.1446 345.768 71.2566 346.376C69.3686 346.984 67.4966 347.288 65.6406 347.288C63.2086 347.288 60.9846 346.792 58.9686 345.8C56.9526 344.776 55.2086 343.432 53.7366 341.768C52.2966 340.072 51.1606 338.184 50.3286 336.104C49.5286 333.992 49.1286 331.864 49.1286 329.72ZM94.9971 347.48C92.9491 347.48 91.1091 347.144 89.4771 346.472C87.8451 345.768 86.4531 344.808 85.3011 343.592C84.1811 342.376 83.3171 340.984 82.7091 339.416C82.1011 337.848 81.7971 336.2 81.7971 334.472C81.7971 332.712 82.1011 331.048 82.7091 329.48C83.3171 327.912 84.1811 326.52 85.3011 325.304C86.4531 324.088 87.8451 323.144 89.4771 322.472C91.1091 321.768 92.9491 321.416 94.9971 321.416C97.0451 321.416 98.8691 321.768 100.469 322.472C102.101 323.144 103.493 324.088 104.645 325.304C105.797 326.52 106.661 327.912 107.237 329.48C107.845 331.048 108.149 332.712 108.149 334.472C108.149 336.2 107.845 337.848 107.237 339.416C106.661 340.984 105.797 342.376 104.645 343.592C103.525 344.808 102.149 345.768 100.517 346.472C98.8851 347.144 97.0451 347.48 94.9971 347.48ZM88.4211 334.472C88.4211 335.944 88.7091 337.256 89.2851 338.408C89.8611 339.528 90.6451 340.408 91.6371 341.048C92.6291 341.688 93.7491 342.008 94.9971 342.008C96.2131 342.008 97.3171 341.688 98.3091 341.048C99.3011 340.376 100.085 339.48 100.661 338.36C101.269 337.208 101.573 335.896 101.573 334.424C101.573 332.984 101.269 331.688 100.661 330.536C100.085 329.384 99.3011 328.488 98.3091 327.848C97.3171 327.208 96.2131 326.888 94.9971 326.888C93.7491 326.888 92.6291 327.224 91.6371 327.896C90.6451 328.536 89.8611 329.432 89.2851 330.584C88.7091 331.704 88.4211 333 88.4211 334.472ZM118.415 347L109.151 321.848H115.823L122.159 341.144L128.543 321.848H134.639L125.423 347H118.415ZM148.858 347.48C146.842 347.48 145.018 347.144 143.386 346.472C141.754 345.768 140.362 344.824 139.21 343.64C138.058 342.424 137.162 341.048 136.522 339.512C135.914 337.944 135.61 336.296 135.61 334.568C135.61 332.168 136.138 329.976 137.194 327.992C138.282 326.008 139.818 324.424 141.802 323.24C143.818 322.024 146.186 321.416 148.906 321.416C151.658 321.416 154.01 322.024 155.962 323.24C157.914 324.424 159.402 326.008 160.426 327.992C161.482 329.944 162.01 332.056 162.01 334.328C162.01 334.712 161.994 335.112 161.962 335.528C161.93 335.912 161.898 336.232 161.866 336.488H142.426C142.554 337.768 142.922 338.888 143.53 339.848C144.17 340.808 144.97 341.544 145.93 342.056C146.922 342.536 147.978 342.776 149.098 342.776C150.378 342.776 151.578 342.472 152.698 341.864C153.85 341.224 154.634 340.392 155.05 339.368L160.57 340.904C159.962 342.184 159.082 343.32 157.93 344.312C156.81 345.304 155.482 346.088 153.946 346.664C152.41 347.208 150.714 347.48 148.858 347.48ZM142.282 332.408H155.434C155.306 331.128 154.938 330.024 154.33 329.096C153.754 328.136 152.986 327.4 152.026 326.888C151.066 326.344 149.994 326.072 148.81 326.072C147.658 326.072 146.602 326.344 145.642 326.888C144.714 327.4 143.946 328.136 143.338 329.096C142.762 330.024 142.41 331.128 142.282 332.408ZM180.904 327.416C178.952 327.416 177.208 327.8 175.672 328.568C174.136 329.304 173.032 330.376 172.36 331.784V347H165.928V321.848H171.832V327.224C172.728 325.496 173.864 324.136 175.24 323.144C176.616 322.152 178.072 321.608 179.608 321.512C179.96 321.512 180.232 321.512 180.424 321.512C180.616 321.512 180.776 321.528 180.904 321.56V327.416ZM202.192 325.112V347H195.568V312.92H200.848L218.464 335.384V312.968H225.088V347H219.568L202.192 325.112ZM242.747 347.48C240.699 347.48 238.859 347.144 237.227 346.472C235.595 345.768 234.203 344.808 233.051 343.592C231.931 342.376 231.067 340.984 230.459 339.416C229.851 337.848 229.547 336.2 229.547 334.472C229.547 332.712 229.851 331.048 230.459 329.48C231.067 327.912 231.931 326.52 233.051 325.304C234.203 324.088 235.595 323.144 237.227 322.472C238.859 321.768 240.699 321.416 242.747 321.416C244.795 321.416 246.619 321.768 248.219 322.472C249.851 323.144 251.243 324.088 252.395 325.304C253.547 326.52 254.411 327.912 254.987 329.48C255.595 331.048 255.899 332.712 255.899 334.472C255.899 336.2 255.595 337.848 254.987 339.416C254.411 340.984 253.547 342.376 252.395 343.592C251.275 344.808 249.899 345.768 248.267 346.472C246.635 347.144 244.795 347.48 242.747 347.48ZM236.171 334.472C236.171 335.944 236.459 337.256 237.035 338.408C237.611 339.528 238.395 340.408 239.387 341.048C240.379 341.688 241.499 342.008 242.747 342.008C243.963 342.008 245.067 341.688 246.059 341.048C247.051 340.376 247.835 339.48 248.411 338.36C249.019 337.208 249.323 335.896 249.323 334.424C249.323 332.984 249.019 331.688 248.411 330.536C247.835 329.384 247.051 328.488 246.059 327.848C245.067 327.208 243.963 326.888 242.747 326.888C241.499 326.888 240.379 327.224 239.387 327.896C238.395 328.536 237.611 329.432 237.035 330.584C236.459 331.704 236.171 333 236.171 334.472ZM274.938 345.704C274.394 345.928 273.738 346.184 272.97 346.472C272.202 346.76 271.37 346.984 270.474 347.144C269.61 347.336 268.73 347.432 267.834 347.432C266.65 347.432 265.562 347.224 264.57 346.808C263.578 346.392 262.778 345.736 262.17 344.84C261.594 343.912 261.306 342.712 261.306 341.24V326.792H257.994V321.848H261.306V313.688H267.738V321.848H273.018V326.792H267.738V339.08C267.77 339.944 268.01 340.568 268.458 340.952C268.906 341.336 269.466 341.528 270.138 341.528C270.81 341.528 271.466 341.416 272.106 341.192C272.746 340.968 273.258 340.776 273.642 340.616L274.938 345.704ZM67.6285 368.92H74.3485L86.8765 403H80.0605L76.8925 394.504H64.9885L61.8685 403H55.0525L67.6285 368.92ZM75.6925 389.848L70.9885 375.784L66.0925 389.848H75.6925ZM95.1648 403L85.9008 377.848H92.5728L98.9088 397.144L105.293 377.848H111.389L102.173 403H95.1648ZM112.403 395.56C112.403 393.928 112.851 392.504 113.747 391.288C114.675 390.04 115.955 389.08 117.587 388.408C119.219 387.736 121.091 387.4 123.203 387.4C124.259 387.4 125.331 387.48 126.419 387.64C127.507 387.8 128.451 388.056 129.251 388.408V387.064C129.251 385.464 128.771 384.232 127.811 383.368C126.883 382.504 125.491 382.072 123.635 382.072C122.259 382.072 120.947 382.312 119.699 382.792C118.451 383.272 117.139 383.976 115.763 384.904L113.699 380.68C115.363 379.592 117.059 378.776 118.787 378.232C120.547 377.688 122.387 377.416 124.307 377.416C127.891 377.416 130.675 378.312 132.659 380.104C134.675 381.896 135.683 384.456 135.683 387.784V395.8C135.683 396.472 135.795 396.952 136.019 397.24C136.275 397.528 136.675 397.704 137.219 397.768V403C136.643 403.096 136.115 403.176 135.635 403.24C135.187 403.304 134.803 403.336 134.483 403.336C133.203 403.336 132.227 403.048 131.555 402.472C130.915 401.896 130.515 401.192 130.355 400.36L130.211 399.064C129.123 400.472 127.763 401.56 126.131 402.328C124.499 403.096 122.835 403.48 121.139 403.48C119.475 403.48 117.971 403.144 116.627 402.472C115.315 401.768 114.275 400.824 113.507 399.64C112.771 398.424 112.403 397.064 112.403 395.56ZM128.051 396.856C128.403 396.472 128.691 396.088 128.915 395.704C129.139 395.32 129.251 394.968 129.251 394.648V392.104C128.483 391.784 127.651 391.544 126.755 391.384C125.859 391.192 125.011 391.096 124.211 391.096C122.547 391.096 121.171 391.464 120.083 392.2C119.027 392.904 118.499 393.848 118.499 395.032C118.499 395.672 118.675 396.28 119.027 396.856C119.379 397.432 119.891 397.896 120.563 398.248C121.235 398.6 122.035 398.776 122.963 398.776C123.923 398.776 124.867 398.6 125.795 398.248C126.723 397.864 127.475 397.4 128.051 396.856ZM141.694 403V377.848H148.126V403H141.694ZM141.694 374.344V367.96H148.126V374.344H141.694ZM153.88 367.96H160.312V394.936C160.312 396.088 160.504 396.872 160.888 397.288C161.272 397.672 161.8 397.864 162.472 397.864C162.984 397.864 163.512 397.8 164.056 397.672C164.6 397.544 165.08 397.384 165.496 397.192L166.36 402.088C165.496 402.504 164.488 402.824 163.336 403.048C162.184 403.272 161.144 403.384 160.216 403.384C158.2 403.384 156.632 402.856 155.512 401.8C154.424 400.712 153.88 399.176 153.88 397.192V367.96ZM167.434 395.56C167.434 393.928 167.882 392.504 168.778 391.288C169.706 390.04 170.986 389.08 172.618 388.408C174.25 387.736 176.122 387.4 178.234 387.4C179.29 387.4 180.362 387.48 181.45 387.64C182.538 387.8 183.482 388.056 184.282 388.408V387.064C184.282 385.464 183.802 384.232 182.842 383.368C181.914 382.504 180.522 382.072 178.666 382.072C177.29 382.072 175.978 382.312 174.73 382.792C173.482 383.272 172.17 383.976 170.794 384.904L168.73 380.68C170.394 379.592 172.09 378.776 173.818 378.232C175.578 377.688 177.418 377.416 179.338 377.416C182.922 377.416 185.706 378.312 187.69 380.104C189.706 381.896 190.714 384.456 190.714 387.784V395.8C190.714 396.472 190.826 396.952 191.05 397.24C191.306 397.528 191.706 397.704 192.25 397.768V403C191.674 403.096 191.146 403.176 190.666 403.24C190.218 403.304 189.834 403.336 189.514 403.336C188.234 403.336 187.258 403.048 186.586 402.472C185.946 401.896 185.546 401.192 185.386 400.36L185.242 399.064C184.154 400.472 182.794 401.56 181.162 402.328C179.53 403.096 177.866 403.48 176.17 403.48C174.506 403.48 173.002 403.144 171.658 402.472C170.346 401.768 169.306 400.824 168.538 399.64C167.802 398.424 167.434 397.064 167.434 395.56ZM183.082 396.856C183.434 396.472 183.722 396.088 183.946 395.704C184.17 395.32 184.282 394.968 184.282 394.648V392.104C183.514 391.784 182.682 391.544 181.786 391.384C180.89 391.192 180.042 391.096 179.242 391.096C177.578 391.096 176.202 391.464 175.114 392.2C174.058 392.904 173.53 393.848 173.53 395.032C173.53 395.672 173.706 396.28 174.058 396.856C174.41 397.432 174.922 397.896 175.594 398.248C176.266 398.6 177.066 398.776 177.994 398.776C178.954 398.776 179.898 398.6 180.826 398.248C181.754 397.864 182.506 397.4 183.082 396.856ZM211.029 403.48C209.109 403.48 207.397 403.048 205.893 402.184C204.389 401.32 203.205 400.136 202.341 398.632V403H196.725V367.96H203.157V382.264C204.053 380.76 205.221 379.576 206.661 378.712C208.133 377.848 209.845 377.416 211.797 377.416C213.429 377.416 214.917 377.768 216.261 378.472C217.605 379.144 218.757 380.088 219.717 381.304C220.709 382.52 221.461 383.912 221.973 385.48C222.517 387.048 222.789 388.728 222.789 390.52C222.789 392.312 222.485 393.992 221.877 395.56C221.301 397.128 220.485 398.52 219.429 399.736C218.373 400.92 217.125 401.848 215.685 402.52C214.277 403.16 212.725 403.48 211.029 403.48ZM209.253 398.008C210.277 398.008 211.205 397.816 212.037 397.432C212.901 397.016 213.637 396.472 214.245 395.8C214.885 395.128 215.365 394.344 215.685 393.448C216.037 392.52 216.213 391.56 216.213 390.568C216.213 389.192 215.925 387.928 215.349 386.776C214.805 385.592 214.037 384.648 213.045 383.944C212.085 383.24 210.949 382.888 209.637 382.888C208.709 382.888 207.813 383.112 206.949 383.56C206.117 383.976 205.365 384.552 204.693 385.288C204.053 386.024 203.541 386.856 203.157 387.784V393.784C203.349 394.424 203.653 395 204.069 395.512C204.517 396.024 205.029 396.472 205.605 396.856C206.181 397.208 206.773 397.496 207.381 397.72C208.021 397.912 208.645 398.008 209.253 398.008ZM227.099 367.96H233.531V394.936C233.531 396.088 233.723 396.872 234.107 397.288C234.491 397.672 235.019 397.864 235.691 397.864C236.203 397.864 236.731 397.8 237.275 397.672C237.819 397.544 238.299 397.384 238.715 397.192L239.579 402.088C238.715 402.504 237.707 402.824 236.555 403.048C235.403 403.272 234.363 403.384 233.435 403.384C231.419 403.384 229.851 402.856 228.731 401.8C227.643 400.712 227.099 399.176 227.099 397.192V367.96ZM254.045 403.48C252.029 403.48 250.205 403.144 248.573 402.472C246.941 401.768 245.549 400.824 244.397 399.64C243.245 398.424 242.349 397.048 241.709 395.512C241.101 393.944 240.797 392.296 240.797 390.568C240.797 388.168 241.325 385.976 242.381 383.992C243.469 382.008 245.005 380.424 246.989 379.24C249.005 378.024 251.373 377.416 254.093 377.416C256.845 377.416 259.197 378.024 261.149 379.24C263.101 380.424 264.589 382.008 265.613 383.992C266.669 385.944 267.197 388.056 267.197 390.328C267.197 390.712 267.181 391.112 267.149 391.528C267.117 391.912 267.085 392.232 267.053 392.488H247.613C247.741 393.768 248.109 394.888 248.717 395.848C249.357 396.808 250.157 397.544 251.117 398.056C252.109 398.536 253.165 398.776 254.285 398.776C255.565 398.776 256.765 398.472 257.885 397.864C259.037 397.224 259.821 396.392 260.237 395.368L265.757 396.904C265.149 398.184 264.269 399.32 263.117 400.312C261.997 401.304 260.669 402.088 259.133 402.664C257.597 403.208 255.901 403.48 254.045 403.48ZM247.469 388.408H260.621C260.493 387.128 260.125 386.024 259.517 385.096C258.941 384.136 258.173 383.4 257.213 382.888C256.253 382.344 255.181 382.072 253.997 382.072C252.845 382.072 251.789 382.344 250.829 382.888C249.901 383.4 249.133 384.136 248.525 385.096C247.949 386.024 247.597 387.128 247.469 388.408Z" fill="#C0C0C1"/>
<defs>
<filter id="filter0_d_10_3" x="0" y="0" width="322" height="483" filterUnits="userSpaceOnUse" color-interpolation-filters="sRGB">
<feFlood flood-opacity="0" result="BackgroundImageFix"/>
<feColorMatrix in="SourceAlpha" type="matrix" values="0 0 0 0 0 0 0 0 0 0 0 0 0 0 0 0 0 0 127 0" result="hardAlpha"/>
<feOffset dy="4"/>
<feGaussianBlur stdDeviation="2"/>
<feComposite in2="hardAlpha" operator="out"/>
<feColorMatrix type="matrix" values="0 0 0 0 0 0 0 0 0 0 0 0 0 0 0 0 0 0 0.25 0"/>
<feBlend mode="normal" in2="BackgroundImageFix" result="effect1_dropShadow_10_3"/>
<feBlend mode="normal" in="SourceGraphic" in2="effect1_dropShadow_10_3" result="shape"/>
</filter>
</defs>
</svg>
