<svg width="322" height="483" viewBox="0 0 322 483" fill="none" xmlns="http://www.w3.org/2000/svg">
<g filter="url(#filter0_d_10_3)">
<rect x="4" width="314" height="475" rx="20" fill="#707071"/>
</g>
<path d="M73.7014 142.001C73.6946 142.001 73.6869 142.001 73.6801 142.001C71.2873 142.001 69.0367 142.934 67.3372 144.629C65.619 146.343 64.6726 148.625 64.6726 151.054V286.81C64.6726 291.788 68.7385 295.848 73.7372 295.861C94.8104 295.911 130.116 300.304 154.473 325.792V183.72C154.473 182.032 154.041 180.447 153.228 179.135C133.238 146.942 94.8223 142.05 73.7014 142.001Z" fill="#C0C0C1"/>
<path d="M258.328 286.81V151.054C258.328 148.624 257.381 146.342 255.663 144.628C253.964 142.933 251.712 142 249.321 142C249.314 142 249.306 142 249.299 142C228.179 142.05 189.764 146.942 169.773 179.135C168.959 180.447 168.529 182.032 168.529 183.72V325.791C192.885 300.303 228.191 295.91 249.264 295.86C254.262 295.847 258.328 291.787 258.328 286.81Z" fill="#C0C0C1"/>
<path d="M278.948 173.308H272.384V286.81C272.384 299.521 262.028 309.885 249.298 309.917C231.423 309.959 201.951 313.454 181.078 333.21C217.178 324.371 255.233 330.117 276.921 335.059C279.629 335.676 282.428 335.039 284.598 333.309C286.76 331.584 288 329.006 288 326.238V182.36C288.001 177.369 283.939 173.308 278.948 173.308Z" fill="#C0C0C1"/>
<path d="M50.6162 286.81V173.308H44.0518C39.0616 173.308 35 177.369 35 182.36V326.236C35 329.004 36.2403 331.582 38.4023 333.307C40.5703 335.035 43.3661 335.675 46.0784 335.057C67.7666 330.113 105.823 324.368 141.921 333.207C121.049 313.453 91.5767 309.958 73.7023 309.916C60.973 309.885 50.6162 299.521 50.6162 286.81Z" fill="#C0C0C1"/>
<mask id="mask0_10_3" style="mask-type:luminance" maskUnits="userSpaceOnUse" x="214" y="258" width="37" height="20">
<path d="M250.448 277.736H226.478L214.949 258.003H236.895L250.448 277.736Z" fill="white"/>
</mask>
<g mask="url(#mask0_10_3)">
<path d="M250.448 277.736H226.478L214.949 258.003H236.895L250.448 277.736Z" fill="#881337" fill-opacity="0.14"/>
</g>
<mask id="mask1_10_3" style="mask-type:luminance" maskUnits="userSpaceOnUse" x="189" y="251" width="22" height="27">
<path d="M198.627 277.52H189.04V251.681V264.552L210.178 251.59V265.969C210.178 272.344 205.005 277.52 198.627 277.52" fill="white"/>
</mask>
<g mask="url(#mask1_10_3)">
<path d="M198.627 277.52H189.04V251.681V264.552L210.178 251.59V265.969C210.178 272.344 205.005 277.52 198.627 277.52" fill="#881337" fill-opacity="0.14"/>
</g>
<mask id="mask2_10_3" style="mask-type:luminance" maskUnits="userSpaceOnUse" x="176" y="199" width="70" height="53">
<path d="M189.04 251.681H176.193L179.893 241.134C181.276 237.207 184.915 234.53 189.04 234.361V199.296H216.115C221.471 199.296 226.097 199.935 230.01 201.198C233.313 202.264 236.112 203.785 238.381 205.764C243.327 210.088 245.808 216.22 245.808 224.181C245.808 227.178 245.502 229.949 244.895 232.475C243.737 237.315 241.471 241.303 238.075 244.436C237.3 245.153 236.479 245.821 235.596 246.415C230.954 249.658 224.881 251.378 217.422 251.561H217.302L210.635 251.589H210.178L189.04 251.676V251.681ZM210.178 220.712L189.04 234.357L210.178 234.343V234.347H214.532C216.891 234.347 219.249 233.617 221.061 232.11C221.227 231.988 221.381 231.851 221.532 231.715L221.592 231.669C223.466 229.888 224.41 227.423 224.41 224.286C224.41 219.005 221.487 216.373 215.627 216.373H210.178V220.712" fill="white"/>
</mask>
<g mask="url(#mask2_10_3)">
<path d="M189.04 251.681H176.193L179.893 241.134C181.276 237.207 184.915 234.53 189.04 234.361V199.296H216.115C221.471 199.296 226.097 199.935 230.01 201.198C233.313 202.264 236.112 203.785 238.381 205.764C243.327 210.088 245.808 216.22 245.808 224.181C245.808 227.178 245.502 229.949 244.895 232.475C243.737 237.315 241.471 241.303 238.075 244.436C237.3 245.153 236.479 245.821 235.596 246.415C230.954 249.658 224.881 251.378 217.422 251.561H217.302L210.635 251.589H210.178L189.04 251.676V251.681ZM210.178 220.712L189.04 234.357L210.178 234.343V234.347H214.532C216.891 234.347 219.249 233.617 221.061 232.11C221.227 231.988 221.381 231.851 221.532 231.715L221.592 231.669C223.466 229.888 224.41 227.423 224.41 224.286C224.41 219.005 221.487 216.373 215.627 216.373H210.178V220.712" fill="#881337" fill-opacity="0.14"/>
</g>
<mask id="mask3_10_3" style="mask-type:luminance" maskUnits="userSpaceOnUse" x="189" y="220" width="22" height="15">
<path d="M189.04 234.357L210.178 220.712V234.343L189.04 234.357" fill="white"/>
</mask>
<g mask="url(#mask3_10_3)">
<path d="M189.04 234.357L210.178 220.712V234.343L189.04 234.357" fill="#881337" fill-opacity="0.14"/>
</g>
<mask id="mask4_10_3" style="mask-type:luminance" maskUnits="userSpaceOnUse" x="189" y="251" width="22" height="14">
<path d="M189.04 264.552V251.681H189.497L210.178 251.59L189.04 264.552" fill="white"/>
</mask>
<g mask="url(#mask4_10_3)">
<path d="M189.04 264.552V251.681H189.497L210.178 251.59L189.04 264.552" fill="#881337" fill-opacity="0.14"/>
</g>
<mask id="mask5_10_3" style="mask-type:luminance" maskUnits="userSpaceOnUse" x="84" y="199" width="60" height="31">
<path d="M143.267 218.744C143.267 222.803 142.31 226.311 140.365 229.261H121.628V223.866C121.675 223.243 121.688 222.573 121.628 221.844C121.308 217.469 118.317 215.266 111.69 215.266H105.765V227.741H84.6577V199.296H111.904C122.526 199.296 130.395 200.876 135.548 204.02C140.699 207.182 143.267 212.09 143.267 218.744V218.744Z" fill="white"/>
</mask>
<g mask="url(#mask5_10_3)">
<path d="M143.267 218.744C143.267 222.803 142.31 226.311 140.365 229.261H121.628V223.866C121.675 223.243 121.688 222.573 121.628 221.844C121.308 217.469 118.317 215.266 111.69 215.266H105.765V227.741H84.6577V199.296H111.904C122.526 199.296 130.395 200.876 135.548 204.02C140.699 207.182 143.267 212.09 143.267 218.744" fill="#881337" fill-opacity="0.14"/>
</g>
<mask id="mask6_10_3" style="mask-type:luminance" maskUnits="userSpaceOnUse" x="71" y="236" width="74" height="42">
<path d="M115.065 277.397H84.6577V253.36H71.833L75.527 242.828C76.9553 238.773 80.7982 236.051 85.0984 236.051H127.494C128.71 236.051 129.894 236.174 131.033 236.417V236.478C133.117 237.025 134.954 237.739 136.566 238.619L136.627 238.651C139.909 240.687 142.43 243.772 143.784 247.417C143.858 247.662 143.949 247.92 144.027 248.163L144.04 248.209C144.467 249.774 144.726 251.491 144.786 253.36C144.817 253.74 144.817 254.133 144.817 254.53C144.817 261.626 142.158 267.201 136.823 271.275C131.504 275.363 124.243 277.397 115.065 277.397M84.6577 253.36V267.165L105.765 253.36V261.11H113.196C119.532 261.11 122.828 258.526 123.042 253.36H105.765H84.6577Z" fill="white"/>
</mask>
<g mask="url(#mask6_10_3)">
<path d="M115.065 277.397H84.6577V253.36H71.833L75.527 242.828C76.9553 238.773 80.7982 236.051 85.0984 236.051H127.494C128.71 236.051 129.894 236.174 131.033 236.417V236.478C133.117 237.025 134.954 237.739 136.566 238.619L136.627 238.651C139.909 240.687 142.43 243.772 143.784 247.417C143.858 247.662 143.949 247.92 144.027 248.163L144.04 248.209C144.467 249.774 144.726 251.491 144.786 253.36C144.817 253.74 144.817 254.133 144.817 254.53C144.817 261.626 142.158 267.201 136.823 271.275C131.504 275.363 124.243 277.397 115.065 277.397M84.6577 253.36V267.165L105.765 253.36V261.11H113.196C119.532 261.11 122.828 258.526 123.042 253.36H105.765H84.6577Z" fill="#881337" fill-opacity="0.14"/>
</g>
<mask id="mask7_10_3" style="mask-type:luminance" maskUnits="userSpaceOnUse" x="84" y="253" width="22" height="15">
<path d="M84.6577 267.165V253.36H105.765L84.6577 267.165Z" fill="white"/>
</mask>
<g mask="url(#mask7_10_3)">
<path d="M84.6577 267.165V253.36H105.765L84.6577 267.165Z" fill="#881337" fill-opacity="0.14"/>
</g>
<defs>
<filter id="filter0_d_10_3" x="0" y="0" width="322" height="483" filterUnits="userSpaceOnUse" color-interpolation-filters="sRGB">
<feFlood flood-opacity="0" result="BackgroundImageFix"/>
<feColorMatrix in="SourceAlpha" type="matrix" values="0 0 0 0 0 0 0 0 0 0 0 0 0 0 0 0 0 0 127 0" result="hardAlpha"/>
<feOffset dy="4"/>
<feGaussianBlur stdDeviation="2"/>
<feComposite in2="hardAlpha" operator="out"/>
<feColorMatrix type="matrix" values="0 0 0 0 0 0 0 0 0 0 0 0 0 0 0 0 0 0 0.25 0"/>
<feBlend mode="normal" in2="BackgroundImageFix" result="effect1_dropShadow_10_3"/>
<feBlend mode="normal" in="SourceGraphic" in2="effect1_dropShadow_10_3" result="shape"/>
</filter>
</defs>
</svg>
