<svg width="32" height="32" viewBox="0 0 32 32" fill="none" xmlns="http://www.w3.org/2000/svg">
<mask id="mask0_22_5294" style="mask-type:alpha" maskUnits="userSpaceOnUse" x="24" y="20" width="8" height="5">
<path d="M31.901 24.7295H26.7886L24.3298 20.5208H29.0105L31.901 24.7295Z" fill="white"/>
</mask>
<g mask="url(#mask0_22_5294)">
<path d="M31.901 24.7295H26.7886L24.3298 20.5208H29.0105L31.901 24.7295Z" fill="black"/>
</g>
<mask id="mask1_22_5294" style="mask-type:alpha" maskUnits="userSpaceOnUse" x="18" y="19" width="6" height="6">
<path d="M20.8488 24.6835H18.8042V19.1725V21.9176L23.3125 19.1531V22.2198C23.3125 23.5795 22.2092 24.6835 20.8488 24.6835" fill="white"/>
</mask>
<g mask="url(#mask1_22_5294)">
<path d="M20.8488 24.6835H18.8042V19.1725V21.9176L23.3125 19.1531V22.2198C23.3125 23.5795 22.2092 24.6835 20.8488 24.6835" fill="black"/>
</g>
<mask id="mask2_22_5294" style="mask-type:alpha" maskUnits="userSpaceOnUse" x="16" y="8" width="15" height="12">
<path d="M18.8039 19.1726H16.064L16.8531 16.9232C17.1481 16.0857 17.9242 15.5148 18.8039 15.4787V8.0001H24.5784C25.7206 8.0001 26.7074 8.13643 27.5419 8.40584C28.2463 8.63306 28.8432 8.95765 29.3272 9.37962C30.3821 10.3018 30.9112 11.6096 30.9112 13.3075C30.9112 13.9467 30.846 14.5377 30.7164 15.0766C30.4694 16.1088 29.9861 16.9592 29.2619 17.6275C29.0967 17.7804 28.9214 17.9229 28.7332 18.0495C27.7432 18.7412 26.448 19.108 24.8572 19.147H24.8316L23.4095 19.1531H23.3121L18.8039 19.1716V19.1726ZM23.3121 12.5678L18.8039 15.4778L23.3121 15.4748V15.4758H24.2408C24.7439 15.4758 25.2467 15.32 25.6333 14.9987C25.6687 14.9727 25.7015 14.9435 25.7336 14.9143L25.7466 14.9045C26.1462 14.5248 26.3474 13.9989 26.3474 13.3299C26.3474 12.2036 25.7242 11.6424 24.4742 11.6424H23.3121V12.5678" fill="white"/>
</mask>
<g mask="url(#mask2_22_5294)">
<path d="M18.8039 19.1726H16.064L16.8531 16.9232C17.1481 16.0857 17.9242 15.5148 18.8039 15.4787V8.0001H24.5784C25.7206 8.0001 26.7074 8.13643 27.5419 8.40584C28.2463 8.63306 28.8432 8.95765 29.3272 9.37962C30.3821 10.3018 30.9112 11.6096 30.9112 13.3075C30.9112 13.9467 30.846 14.5377 30.7164 15.0766C30.4694 16.1088 29.9861 16.9592 29.2619 17.6275C29.0967 17.7804 28.9214 17.9229 28.7332 18.0495C27.7432 18.7412 26.448 19.108 24.8572 19.147H24.8316L23.4095 19.1531H23.3121L18.8039 19.1716V19.1726ZM23.3121 12.5678L18.8039 15.4778L23.3121 15.4748V15.4758H24.2408C24.7439 15.4758 25.2467 15.32 25.6333 14.9987C25.6687 14.9727 25.7015 14.9435 25.7336 14.9143L25.7466 14.9045C26.1462 14.5248 26.3474 13.9989 26.3474 13.3299C26.3474 12.2036 25.7242 11.6424 24.4742 11.6424H23.3121V12.5678" fill="black"/>
</g>
<mask id="mask3_22_5294" style="mask-type:alpha" maskUnits="userSpaceOnUse" x="18" y="12" width="6" height="4">
<path d="M18.8042 15.4777L23.3125 12.5677V15.4747L18.8042 15.4777" fill="white"/>
</mask>
<g mask="url(#mask3_22_5294)">
<path d="M18.8042 15.4777L23.3125 12.5677V15.4747L18.8042 15.4777" fill="black"/>
</g>
<mask id="mask4_22_5294" style="mask-type:alpha" maskUnits="userSpaceOnUse" x="18" y="19" width="6" height="3">
<path d="M18.8042 21.9175V19.1724H18.9016L23.3125 19.1529L18.8042 21.9175" fill="white"/>
</mask>
<g mask="url(#mask4_22_5294)">
<path d="M18.8042 21.9175V19.1724H18.9016L23.3125 19.1529L18.8042 21.9175" fill="black"/>
</g>
<mask id="mask5_22_5294" style="mask-type:alpha" maskUnits="userSpaceOnUse" x="2" y="8" width="14" height="7">
<path d="M15.2353 12.1479C15.2353 13.0135 15.0312 13.7618 14.6163 14.3909H10.6201V13.2404C10.6302 13.1075 10.6331 12.9646 10.6201 12.8091C10.5521 11.876 9.91398 11.4061 8.50068 11.4061H7.23711V14.0668H2.73535V8.00007H8.54638C10.8117 8.00007 12.4901 8.33711 13.589 9.00763C14.6876 9.68203 15.2353 10.7288 15.2353 12.1479V12.1479Z" fill="white"/>
</mask>
<g mask="url(#mask5_22_5294)">
<path d="M15.2353 12.1479C15.2353 13.0135 15.0312 13.7618 14.6163 14.3909H10.6201V13.2404C10.6302 13.1075 10.6331 12.9646 10.6201 12.8091C10.5521 11.876 9.91398 11.4061 8.50068 11.4061H7.23711V14.0668H2.73535V8.00007H8.54638C10.8117 8.00007 12.4901 8.33711 13.589 9.00763C14.6876 9.68203 15.2353 10.7288 15.2353 12.1479" fill="black"/>
</g>
<mask id="mask6_22_5294" style="mask-type:alpha" maskUnits="userSpaceOnUse" x="0" y="15" width="16" height="10">
<path d="M9.22032 24.6572H2.73521V19.5307H0L0.787833 17.2845C1.09247 16.4195 1.91206 15.8391 2.82919 15.8391H11.8713C12.1305 15.8391 12.383 15.8653 12.626 15.9172V15.9302C13.0704 16.0468 13.4622 16.1991 13.806 16.3868L13.819 16.3936C14.519 16.8278 15.0566 17.4857 15.3454 18.2632C15.3613 18.3154 15.3807 18.3705 15.3972 18.4223L15.4001 18.432C15.4912 18.7658 15.5463 19.132 15.5593 19.5307C15.5657 19.6117 15.5657 19.6956 15.5657 19.7802C15.5657 21.2936 14.9986 22.4827 13.8608 23.3515C12.7265 24.2233 11.1777 24.6572 9.22032 24.6572M2.73521 19.5307V22.4749L7.23697 19.5307V21.1834H8.8217C10.1731 21.1834 10.876 20.6325 10.9217 19.5307H7.23697H2.73521Z" fill="white"/>
</mask>
<g mask="url(#mask6_22_5294)">
<path d="M9.22032 24.6572H2.73521V19.5307H0L0.787833 17.2845C1.09247 16.4195 1.91206 15.8391 2.82919 15.8391H11.8713C12.1305 15.8391 12.383 15.8653 12.626 15.9172V15.9302C13.0704 16.0468 13.4622 16.1991 13.806 16.3868L13.819 16.3936C14.519 16.8278 15.0566 17.4857 15.3454 18.2632C15.3613 18.3154 15.3807 18.3705 15.3972 18.4223L15.4001 18.432C15.4912 18.7658 15.5463 19.132 15.5593 19.5307C15.5657 19.6117 15.5657 19.6956 15.5657 19.7802C15.5657 21.2936 14.9986 22.4827 13.8608 23.3515C12.7265 24.2233 11.1777 24.6572 9.22032 24.6572M2.73521 19.5307V22.4749L7.23697 19.5307V21.1834H8.8217C10.1731 21.1834 10.876 20.6325 10.9217 19.5307H7.23697H2.73521Z" fill="black"/>
</g>
<mask id="mask7_22_5294" style="mask-type:alpha" maskUnits="userSpaceOnUse" x="2" y="19" width="6" height="4">
<path d="M2.73535 22.4751V19.5309H7.23711L2.73535 22.4751Z" fill="white"/>
</mask>
<g mask="url(#mask7_22_5294)">
<path d="M2.73535 22.4751V19.5309H7.23711L2.73535 22.4751Z" fill="black"/>
</g>
</svg>
