<?xml version="1.0" standalone="no"?>
<!DOCTYPE svg PUBLIC "-//W3C//DTD SVG 20010904//EN"
 "http://www.w3.org/TR/2001/REC-SVG-20010904/DTD/svg10.dtd">
<svg version="1.0" xmlns="http://www.w3.org/2000/svg"
 width="512.000000pt" height="512.000000pt" viewBox="0 0 512.000000 512.000000"
 preserveAspectRatio="xMidYMid meet">
<metadata>
Created by potrace 1.14, written by Peter Selinger 2001-2017
</metadata>
<g transform="translate(0.000000,512.000000) scale(0.100000,-0.100000)"
fill="#000000" stroke="none">
<path d="M393 5105 c-192 -42 -353 -212 -383 -405 -6 -42 -10 -790 -10 -2150
0 -2293 -3 -2159 62 -2283 69 -131 213 -234 358 -257 42 -6 790 -10 2150 -10
2293 0 2159 -3 2283 62 131 69 234 213 257 358 6 42 10 790 10 2150 0 2293 3
2159 -62 2283 -69 131 -213 234 -358 257 -42 6 -789 10 -2155 9 -1719 0 -2101
-3 -2152 -14z m892 -885 c295 -33 562 -123 764 -257 157 -105 355 -318 381
-411 11 -40 15 -2492 4 -2492 -3 0 -38 30 -77 66 -288 264 -710 415 -1225 440
-156 8 -181 16 -226 77 l-21 28 0 1229 0 1229 21 28 c45 60 77 73 188 73 56 0
142 -5 191 -10z m2876 -14 c14 -11 34 -31 45 -45 19 -25 19 -55 22 -1252 l2
-1226 -23 -34 c-39 -58 -81 -79 -156 -79 -36 0 -120 -5 -186 -10 -455 -39
-843 -192 -1117 -440 -36 -33 -69 -60 -72 -60 -4 0 -5 562 -4 1249 l3 1249 50
73 c67 99 181 217 285 295 248 188 643 305 1005 301 102 -2 124 -5 146 -21z
m-3519 -1538 l3 -1023 24 -58 c43 -109 147 -207 251 -238 19 -6 107 -14 196
-19 321 -18 544 -69 768 -175 87 -41 235 -138 291 -189 l40 -37 -35 6 c-210
36 -274 45 -390 56 -187 16 -579 6 -780 -21 -85 -11 -227 -34 -314 -51 -172
-34 -217 -34 -264 0 -66 47 -62 -44 -62 1371 0 1395 -4 1305 57 1361 37 35 45
37 135 38 l78 1 2 -1022z m4015 1006 c19 -9 45 -33 59 -53 l24 -36 0 -1293 c0
-1435 5 -1327 -67 -1377 -47 -32 -80 -32 -236 0 -326 65 -603 90 -925 82 -230
-6 -370 -20 -520 -53 -40 -8 -78 -14 -84 -12 -6 2 23 31 66 65 265 206 584
310 1024 332 171 8 174 9 246 45 88 43 146 102 189 194 l32 67 3 1028 2 1027
76 0 c50 0 88 -6 111 -16z"/>
<path d="M1230 2996 l0 -246 180 0 180 0 0 110 0 110 71 0 c91 0 151 -16 181
-47 20 -21 24 -37 27 -109 l3 -84 160 0 159 0 21 48 c30 65 30 188 1 253 -41
93 -129 152 -273 184 -57 12 -150 18 -392 22 l-318 6 0 -247z"/>
<path d="M1164 2584 c-52 -26 -74 -57 -113 -166 l-38 -103 109 -3 108 -3 0
-209 0 -210 258 0 c404 0 518 20 634 108 45 35 71 64 97 112 35 63 36 68 36
175 0 96 -3 116 -23 153 -33 62 -93 116 -158 140 -54 21 -70 22 -467 22 -352
0 -417 -3 -443 -16z m726 -303 c0 -36 -34 -79 -76 -97 -21 -9 -70 -14 -129
-14 l-95 0 0 70 0 70 150 0 150 0 0 -29z"/>
<path d="M3040 2941 c0 -278 -1 -302 -17 -308 -59 -19 -105 -48 -123 -78 -16
-26 -80 -195 -80 -212 0 -1 48 -4 108 -5 l107 -3 3 -222 2 -223 88 0 c103 0
150 12 192 47 60 50 70 85 70 253 l0 150 89 0 c302 0 480 127 522 373 42 255
-69 437 -308 503 -45 13 -124 17 -355 21 l-298 5 0 -301z m536 -10 c83 -38 97
-164 27 -242 -39 -43 -82 -59 -160 -59 l-53 0 0 160 0 160 73 0 c48 0 85 -6
113 -19z"/>
<path d="M3516 2173 c15 -27 58 -101 96 -165 l69 -118 200 0 c157 0 199 3 193
13 -4 6 -54 81 -112 165 l-104 152 -185 0 -185 0 28 -47z"/>
</g>
</svg>
