<?xml version="1.0" standalone="no"?>
<!DOCTYPE svg PUBLIC "-//W3C//DTD SVG 20010904//EN"
 "http://www.w3.org/TR/2001/REC-SVG-20010904/DTD/svg10.dtd">
<svg version="1.0" xmlns="http://www.w3.org/2000/svg"
 width="512.000000pt" height="512.000000pt" viewBox="0 0 512.000000 512.000000"
 preserveAspectRatio="xMidYMid meet">
<metadata>
Created by potrace 1.14, written by Peter Selinger 2001-2017
</metadata>
<g transform="translate(0.000000,512.000000) scale(0.100000,-0.100000)"
fill="#000000" stroke="none">
<path d="M2340 5108 c-1128 -104 -2064 -967 -2260 -2083 -161 -915 187 -1842
907 -2421 1013 -815 2469 -737 3388 181 992 993 992 2597 0 3590 -536 536
-1279 803 -2035 733z m-79 -1388 c69 -13 171 -61 226 -106 l43 -35 0 -980 c0
-538 -4 -979 -8 -979 -5 0 -17 9 -27 20 -31 35 -113 81 -176 101 -57 18 -99
19 -630 19 l-569 0 0 985 0 985 544 0 c328 0 565 -4 597 -10z m1779 -975 l0
-984 -587 -3 -588 -3 -76 -36 c-41 -20 -91 -50 -111 -68 -20 -17 -38 -31 -42
-31 -3 0 -6 439 -6 976 l0 976 36 33 c51 47 144 94 217 110 48 10 189 14 610
14 l547 1 0 -985z m-3020 -160 l0 -924 628 -3 c625 -3 627 -3 675 -25 68 -32
123 -77 163 -137 19 -28 34 -54 34 -58 0 -5 -394 -8 -875 -8 l-875 0 0 1040 0
1040 125 0 125 0 0 -925z m3370 -115 l0 -1040 -875 0 c-481 0 -875 4 -875 8 0
5 17 33 38 63 46 66 141 133 212 148 34 7 254 11 650 11 l600 0 0 925 0 925
125 0 125 0 0 -1040z"/>
</g>
</svg>
